<?xml version="1.0" encoding="UTF-8"?>
<!DOCTYPE svg PUBLIC "-//W3C//DTD SVG 1.1//EN" "http://www.w3.org/Graphics/SVG/1.1/DTD/svg11.dtd">
<svg xmlns="http://www.w3.org/2000/svg" version="1.1" width="811px" height="572px" style="shape-rendering:geometricPrecision; text-rendering:geometricPrecision; image-rendering:optimizeQuality; fill-rule:evenodd; clip-rule:evenodd" xmlns:xlink="http://www.w3.org/1999/xlink">
<g><path style="opacity:1" fill="#cfc0ee" d="M 673.5,116.5 C 673.167,116.5 672.833,116.5 672.5,116.5C 672.5,88.8333 672.5,61.1667 672.5,33.5C 453.5,33.5 234.5,33.5 15.5,33.5C 15.5,175.5 15.5,317.5 15.5,459.5C 14.5004,317.334 14.1671,175.001 14.5,32.5C 58.1667,32.5 101.833,32.5 145.5,32.5C 145.336,29.8127 145.503,27.146 146,24.5C 146.725,23.9415 147.558,23.6082 148.5,23.5C 163.854,26.2257 179.188,29.0591 194.5,32C 354.166,32.5 513.833,32.6667 673.5,32.5C 673.5,60.5 673.5,88.5 673.5,116.5 Z"/></g>
<g><path style="opacity:1" fill="#9576da" d="M 672.5,116.5 C 672.5,230.833 672.5,345.167 672.5,459.5C 504.167,459.5 335.833,459.5 167.5,459.5C 116.833,459.5 66.1667,459.5 15.5,459.5C 15.5,317.5 15.5,175.5 15.5,33.5C 234.5,33.5 453.5,33.5 672.5,33.5C 672.5,61.1667 672.5,88.8333 672.5,116.5 Z"/></g>
<g><path style="opacity:1" fill="#fefafb" d="M 205.5,97.5 C 250.003,93.7093 291.003,103.876 328.5,128C 336.633,135.881 337.466,144.381 331,153.5C 325.307,158.192 318.807,159.692 311.5,158C 291.671,146.168 270.337,138.501 247.5,135C 214.21,129.788 183.877,136.788 156.5,156C 126.11,182.466 112.944,215.966 117,256.5C 122.858,314.356 154.358,348.523 211.5,359C 243.562,362.613 273.729,356.78 302,341.5C 302.5,316.502 302.667,291.502 302.5,266.5C 277.831,266.667 253.164,266.5 228.5,266C 213.787,256.588 212.787,245.921 225.5,234C 226.5,233.667 227.5,233.333 228.5,233C 259.5,232.333 290.5,232.333 321.5,233C 327.974,235.474 332.474,239.974 335,246.5C 335.667,281.833 335.667,317.167 335,352.5C 332.794,361.028 327.96,367.528 320.5,372C 273.416,395.442 224.416,400.776 173.5,388C 114.841,364.914 83.341,321.748 79,258.5C 74.956,204.57 93.456,160.403 134.5,126C 155.76,110.365 179.427,100.865 205.5,97.5 Z"/></g>
<g><path style="opacity:1" fill="#fefbfb" d="M 423.5,101.5 C 481.168,101.333 538.834,101.5 596.5,102C 609.181,108.361 612.015,117.861 605,130.5C 602.592,132.956 599.759,134.789 596.5,136C 547.168,136.5 497.834,136.667 448.5,136.5C 448.5,167.167 448.5,197.833 448.5,228.5C 492.835,228.333 537.168,228.5 581.5,229C 594.056,234.275 597.556,243.108 592,255.5C 589.313,259.194 585.813,261.694 581.5,263C 537.168,263.5 492.835,263.667 448.5,263.5C 448.667,302.501 448.5,341.501 448,380.5C 443.074,390.925 434.908,395.092 423.5,393C 415.829,389.663 411.662,383.83 411,375.5C 410.333,289.167 410.333,202.833 411,116.5C 413.211,109.796 417.378,104.796 423.5,101.5 Z"/></g>
<g><path style="opacity:1" fill="#c9b9eb" d="M 672.5,116.5 C 672.833,116.5 673.167,116.5 673.5,116.5C 717.776,124.49 762.109,132.157 806.5,139.5C 782.169,279.488 757.835,419.488 733.5,559.5C 544.667,526.362 356,493.029 167.5,459.5C 335.833,459.5 504.167,459.5 672.5,459.5C 672.5,345.167 672.5,230.833 672.5,116.5 Z"/></g>
</svg>
