<?xml version="1.0" encoding="UTF-8"?>
<!DOCTYPE svg PUBLIC "-//W3C//DTD SVG 1.1//EN" "http://www.w3.org/Graphics/SVG/1.1/DTD/svg11.dtd">
<svg xmlns="http://www.w3.org/2000/svg" version="1.1" width="512px" height="512px" style="shape-rendering:geometricPrecision; text-rendering:geometricPrecision; image-rendering:optimizeQuality; fill-rule:evenodd; clip-rule:evenodd" xmlns:xlink="http://www.w3.org/1999/xlink">
<g><path style="opacity:1" fill="#eeecee" d="M 83.5,-0.5 C 150.5,-0.5 217.5,-0.5 284.5,-0.5C 290.48,1.98203 294.647,6.31536 297,12.5C 297.5,45.8317 297.667,79.165 297.5,112.5C 291.833,112.5 286.167,112.5 280.5,112.5C 282.032,107.904 283.365,103.237 284.5,98.5C 284.61,96.626 283.944,95.126 282.5,94C 267.17,93.5001 251.837,93.3334 236.5,93.5C 217.833,93.5 199.167,93.5 180.5,93.5C 165.163,93.3334 149.83,93.5001 134.5,94C 132.556,96.1529 132.056,98.6529 133,101.5C 137.471,113.745 141.637,126.079 145.5,138.5C 145.5,147.833 145.5,157.167 145.5,166.5C 145.5,179.5 145.5,192.5 145.5,205.5C 134.41,208.76 127.576,216.094 125,227.5C 122.824,240.486 126.99,250.819 137.5,258.5C 141.049,270.815 145.382,282.815 150.5,294.5C 152.359,296.192 154.359,297.692 156.5,299C 161.489,299.499 166.489,299.666 171.5,299.5C 171.5,322.5 171.5,345.5 171.5,368.5C 143.167,368.5 114.833,368.5 86.5,368.5C 78.481,366.647 73.6476,361.647 72,353.5C 71.5,270.501 71.3333,187.501 71.5,104.5C 71.3334,73.4982 71.5,42.4982 72,11.5C 74.0188,5.64984 77.8522,1.64984 83.5,-0.5 Z"/></g>
<g><path style="opacity:1" fill="#e5e1e5" d="M 284.5,-0.5 C 299.167,-0.5 313.833,-0.5 328.5,-0.5C 333.564,2.0678 337.064,6.0678 339,11.5C 339.5,19.4931 339.666,27.4931 339.5,35.5C 339.5,61.1667 339.5,86.8333 339.5,112.5C 325.5,112.5 311.5,112.5 297.5,112.5C 297.667,79.165 297.5,45.8317 297,12.5C 294.647,6.31536 290.48,1.98203 284.5,-0.5 Z"/></g>
<g><path style="opacity:1" fill="#585159" d="M 120.5,19.5 C 123.833,19.5 127.167,19.5 130.5,19.5C 130.667,34.837 130.5,50.1703 130,65.5C 123.83,80.6665 113.33,84.8331 98.5,78C 91.1405,71.0737 88.4739,62.5737 90.5,52.5C 93.8333,52.5 97.1667,52.5 100.5,52.5C 100.334,56.8461 100.501,61.1794 101,65.5C 106.471,73.1593 112.471,73.4927 119,66.5C 120.453,50.9043 120.953,35.2377 120.5,19.5 Z"/></g>
<g><path style="opacity:0.999" fill="#00c285" d="M 339.5,35.5 C 351.381,39.775 362.714,45.1084 373.5,51.5C 372.503,71.6598 372.17,91.9931 372.5,112.5C 361.5,112.5 350.5,112.5 339.5,112.5C 339.5,86.8333 339.5,61.1667 339.5,35.5 Z"/></g>
<g><path style="opacity:0.99" fill="#0ed290" d="M 373.5,51.5 C 440.243,89.2194 481.409,145.886 497,221.5C 506.963,279.054 498.129,333.387 470.5,384.5C 470.667,308.166 470.5,231.833 470,155.5C 467.921,149.753 464.088,145.586 458.5,143C 452.175,142.5 445.842,142.334 439.5,142.5C 439.666,136.824 439.499,131.157 439,125.5C 436.833,119.333 432.667,115.167 426.5,113C 412.171,112.5 397.837,112.333 383.5,112.5C 379.833,112.5 376.167,112.5 372.5,112.5C 372.17,91.9931 372.503,71.6598 373.5,51.5 Z"/></g>
<g><path style="opacity:1" fill="#575058" d="M 109.5,88.5 C 115.798,94.2972 121.965,100.297 128,106.5C 132.422,115.656 129.755,121.656 120,124.5C 117.783,123.782 115.616,123.282 113.5,123C 119.958,129.077 118.791,131.577 110,130.5C 107.5,130.167 105,129.833 102.5,129.5C 103.752,127.999 104.752,126.332 105.5,124.5C 96.9216,125.941 91.9216,122.275 90.5,113.5C 90.5153,111.366 91.0153,109.366 92,107.5C 97.6712,100.996 103.505,94.663 109.5,88.5 Z"/></g>
<g><path style="opacity:1" fill="#fd646f" d="M 180.5,93.5 C 181.386,100.141 182.053,106.808 182.5,113.5C 172.869,119.017 169.203,127.35 171.5,138.5C 162.833,138.5 154.167,138.5 145.5,138.5C 141.637,126.079 137.471,113.745 133,101.5C 132.056,98.6529 132.556,96.1529 134.5,94C 149.83,93.5001 165.163,93.3334 180.5,93.5 Z"/></g>
<g><path style="opacity:1" fill="#fd4755" d="M 180.5,93.5 C 199.167,93.5 217.833,93.5 236.5,93.5C 235.833,99.8333 235.167,106.167 234.5,112.5C 217.09,112.181 199.756,112.515 182.5,113.5C 182.053,106.808 181.386,100.141 180.5,93.5 Z"/></g>
<g><path style="opacity:1" fill="#fd646f" d="M 236.5,93.5 C 251.837,93.3334 267.17,93.5001 282.5,94C 283.944,95.126 284.61,96.626 284.5,98.5C 283.365,103.237 282.032,107.904 280.5,112.5C 265.167,112.5 249.833,112.5 234.5,112.5C 235.167,106.167 235.833,99.8333 236.5,93.5 Z"/></g>
<g><path style="opacity:0.994" fill="#0ed290" d="M 71.5,104.5 C 71.3333,187.501 71.5,270.501 72,353.5C 73.6476,361.647 78.481,366.647 86.5,368.5C 92.31,369.49 98.31,369.823 104.5,369.5C 104.334,375.842 104.5,382.175 105,388.5C 107.055,393.888 110.555,398.054 115.5,401C 134.112,402.448 152.778,402.948 171.5,402.5C 171.333,424.503 171.5,446.503 172,468.5C 174.036,475.937 178.87,480.271 186.5,481.5C 191.64,482.488 196.974,482.821 202.5,482.5C 201.072,491.792 203.072,500.126 208.5,507.5C 119.887,487.715 58.72,435.715 25,351.5C -3.64411,265.372 9.02256,186.038 63,113.5C 65.3868,110.043 68.2202,107.043 71.5,104.5 Z"/></g>
<g><path style="opacity:1" fill="#f8f6f7" d="M 234.5,112.5 C 249.833,112.5 265.167,112.5 280.5,112.5C 286.167,112.5 291.833,112.5 297.5,112.5C 311.5,112.5 325.5,112.5 339.5,112.5C 350.5,112.5 361.5,112.5 372.5,112.5C 376.167,112.5 379.833,112.5 383.5,112.5C 390.927,114.765 395.427,119.765 397,127.5C 397.5,199.499 397.667,271.499 397.5,343.5C 395.712,343.215 394.045,343.548 392.5,344.5C 392.624,345.107 392.957,345.44 393.5,345.5C 394.361,347.386 395.361,349.22 396.5,351C 382.962,349.919 378.462,355.753 383,368.5C 388.037,373.369 392.87,378.369 397.5,383.5C 397.5,390.167 397.5,396.833 397.5,403.5C 392.444,403.455 390.111,400.788 390.5,395.5C 387.167,395.5 383.833,395.5 380.5,395.5C 385.288,415.456 390.955,435.123 397.5,454.5C 397.185,458.371 397.518,462.038 398.5,465.5C 396.022,467.803 393.355,469.969 390.5,472C 385.102,475.698 379.435,478.864 373.5,481.5C 311.167,481.5 248.833,481.5 186.5,481.5C 178.87,480.271 174.036,475.937 172,468.5C 171.5,446.503 171.333,424.503 171.5,402.5C 171.5,391.167 171.5,379.833 171.5,368.5C 171.5,345.5 171.5,322.5 171.5,299.5C 171.5,285.833 171.5,272.167 171.5,258.5C 171.5,227.833 171.5,197.167 171.5,166.5C 171.5,157.167 171.5,147.833 171.5,138.5C 169.203,127.35 172.869,119.017 182.5,113.5C 199.756,112.515 217.09,112.181 234.5,112.5 Z"/></g>
<g><path style="opacity:1" fill="#eeecee" d="M 383.5,112.5 C 397.837,112.333 412.171,112.5 426.5,113C 432.667,115.167 436.833,119.333 439,125.5C 439.499,131.157 439.666,136.824 439.5,142.5C 439.5,237.833 439.5,333.167 439.5,428.5C 427.624,442.918 413.958,455.251 398.5,465.5C 397.518,462.038 397.185,458.371 397.5,454.5C 400.17,455.88 402.67,455.547 405,453.5C 410.602,434.193 416.102,414.86 421.5,395.5C 418.15,395.335 414.817,395.502 411.5,396C 410.446,398.382 409.779,400.882 409.5,403.5C 405.5,403.5 401.5,403.5 397.5,403.5C 397.5,396.833 397.5,390.167 397.5,383.5C 398.794,384.29 399.961,385.29 401,386.5C 407.366,380.469 413.366,374.136 419,367.5C 422.027,355.703 417.527,350.037 405.5,350.5C 406.248,348.668 407.248,347.001 408.5,345.5C 403.348,344.186 398.348,344.186 393.5,345.5C 392.957,345.44 392.624,345.107 392.5,344.5C 394.045,343.548 395.712,343.215 397.5,343.5C 397.667,271.499 397.5,199.499 397,127.5C 395.427,119.765 390.927,114.765 383.5,112.5 Z"/></g>
<g><path style="opacity:1" fill="#595259" d="M 207.5,132.5 C 210.961,132.146 213.461,133.479 215,136.5C 220.884,154.982 226.05,173.649 230.5,192.5C 227.167,192.5 223.833,192.5 220.5,192.5C 220.326,190.139 219.993,187.806 219.5,185.5C 213.491,185.334 207.491,185.501 201.5,186C 200.331,188.007 199.665,190.173 199.5,192.5C 196.167,192.5 192.833,192.5 189.5,192.5C 194.35,173.77 199.516,155.104 205,136.5C 205.662,135.016 206.496,133.683 207.5,132.5 Z"/></g>
<g><path style="opacity:1" fill="#fb313b" d="M 145.5,138.5 C 154.167,138.5 162.833,138.5 171.5,138.5C 171.5,147.833 171.5,157.167 171.5,166.5C 162.833,166.5 154.167,166.5 145.5,166.5C 145.5,157.167 145.5,147.833 145.5,138.5 Z"/></g>
<g><path style="opacity:1" fill="#00c285" d="M 439.5,142.5 C 445.842,142.334 452.175,142.5 458.5,143C 464.088,145.586 467.921,149.753 470,155.5C 470.5,231.833 470.667,308.166 470.5,384.5C 462.132,400.577 451.798,415.244 439.5,428.5C 439.5,333.167 439.5,237.833 439.5,142.5 Z"/></g>
<g><path style="opacity:1" fill="#e8e5e7" d="M 209.5,156.5 C 212.555,162.353 214.555,168.687 215.5,175.5C 211.833,175.5 208.167,175.5 204.5,175.5C 205.963,169.111 207.63,162.778 209.5,156.5 Z"/></g>
<g><path style="opacity:1" fill="#fde87d" d="M 145.5,166.5 C 154.167,166.5 162.833,166.5 171.5,166.5C 171.5,197.167 171.5,227.833 171.5,258.5C 160.118,265.063 148.785,265.063 137.5,258.5C 126.99,250.819 122.824,240.486 125,227.5C 127.576,216.094 134.41,208.76 145.5,205.5C 145.5,192.5 145.5,179.5 145.5,166.5 Z"/></g>
<g><path style="opacity:1" fill="#575058" d="M 209.5,201.5 C 216.496,207.662 222.996,214.329 229,221.5C 231.395,230.25 228.228,235.583 219.5,237.5C 217.342,237.079 215.342,236.579 213.5,236C 219.958,242.077 218.791,244.577 210,243.5C 207.5,243.167 205,242.833 202.5,242.5C 203.635,240.201 204.968,238.034 206.5,236C 197.16,239.322 191.827,235.989 190.5,226C 190.667,224.5 190.833,223 191,221.5C 197.005,214.663 203.171,207.996 209.5,201.5 Z"/></g>
<g><path style="opacity:1" fill="#444044" d="M 336.5,351.5 C 359.945,340.282 369.445,321.615 365,295.5C 363.47,290.108 361.137,285.108 358,280.5C 338.667,260.5 319.333,240.5 300,220.5C 298.25,218.266 296.75,215.932 295.5,213.5C 298.516,209.298 302.183,206.131 306.5,204C 330.333,228.5 354.167,253 378,277.5C 389.239,292.467 391.573,308.8 385,326.5C 374.775,346.363 358.608,354.696 336.5,351.5 Z"/></g>
<g><path style="opacity:1" fill="#554e56" d="M 295.5,213.5 C 296.75,215.932 298.25,218.266 300,220.5C 319.333,240.5 338.667,260.5 358,280.5C 361.137,285.108 363.47,290.108 365,295.5C 369.445,321.615 359.945,340.282 336.5,351.5C 330.246,349.976 324.579,347.31 319.5,343.5C 315.253,342.398 310.92,342.232 306.5,343C 304.556,345.153 304.056,347.653 305,350.5C 309.667,358.5 314.333,366.5 319,374.5C 319.684,375.784 319.517,376.951 318.5,378C 324.157,378.499 329.824,378.666 335.5,378.5C 315.671,379.662 295.671,379.829 275.5,379C 273.789,377.867 273.289,376.367 274,374.5C 280.002,364.147 285.669,353.813 291,343.5C 269.354,357.426 249.688,355.093 232,336.5C 219.824,318.01 219.49,299.343 231,280.5C 252.003,257.664 273.503,235.331 295.5,213.5 Z"/></g>
<g><path style="opacity:1" fill="#fedf31" d="M 149.5,217.5 C 166.906,217.67 173.073,226.004 168,242.5C 161.356,249.956 153.522,251.456 144.5,247C 133.956,234.96 135.623,225.127 149.5,217.5 Z"/></g>
<g><path style="opacity:1" fill="#fd656f" d="M 137.5,258.5 C 148.785,265.063 160.118,265.063 171.5,258.5C 171.5,272.167 171.5,285.833 171.5,299.5C 166.489,299.666 161.489,299.499 156.5,299C 154.359,297.692 152.359,296.192 150.5,294.5C 145.382,282.815 141.049,270.815 137.5,258.5 Z"/></g>
<g><path style="opacity:1" fill="#433f43" d="M 319.5,343.5 C 325.309,353.779 331.143,364.112 337,374.5C 337.773,376.352 337.273,377.686 335.5,378.5C 329.824,378.666 324.157,378.499 318.5,378C 319.517,376.951 319.684,375.784 319,374.5C 314.333,366.5 309.667,358.5 305,350.5C 304.056,347.653 304.556,345.153 306.5,343C 310.92,342.232 315.253,342.398 319.5,343.5 Z"/></g>
<g><path style="opacity:1" fill="#575058" d="M 397.5,383.5 C 392.87,378.369 388.037,373.369 383,368.5C 378.462,355.753 382.962,349.919 396.5,351C 395.361,349.22 394.361,347.386 393.5,345.5C 398.348,344.186 403.348,344.186 408.5,345.5C 407.248,347.001 406.248,348.668 405.5,350.5C 417.527,350.037 422.027,355.703 419,367.5C 413.366,374.136 407.366,380.469 401,386.5C 399.961,385.29 398.794,384.29 397.5,383.5 Z"/></g>
<g><path style="opacity:1" fill="#05c286" d="M 86.5,368.5 C 114.833,368.5 143.167,368.5 171.5,368.5C 171.5,379.833 171.5,391.167 171.5,402.5C 152.778,402.948 134.112,402.448 115.5,401C 110.555,398.054 107.055,393.888 105,388.5C 104.5,382.175 104.334,375.842 104.5,369.5C 98.31,369.823 92.31,369.49 86.5,368.5 Z"/></g>
<g><path style="opacity:1" fill="#575058" d="M 397.5,403.5 C 401.5,403.5 405.5,403.5 409.5,403.5C 409.779,400.882 410.446,398.382 411.5,396C 414.817,395.502 418.15,395.335 421.5,395.5C 416.102,414.86 410.602,434.193 405,453.5C 402.67,455.547 400.17,455.88 397.5,454.5C 390.955,435.123 385.288,415.456 380.5,395.5C 383.833,395.5 387.167,395.5 390.5,395.5C 390.111,400.788 392.444,403.455 397.5,403.5 Z"/></g>
<g><path style="opacity:1" fill="#e8e5e8" d="M 395.5,413.5 C 399.226,413.177 402.893,413.511 406.5,414.5C 404.206,420.007 402.373,425.674 401,431.5C 398.857,425.572 397.023,419.572 395.5,413.5 Z"/></g>
<g><path style="opacity:0.998" fill="#11c387" d="M 186.5,481.5 C 248.833,481.5 311.167,481.5 373.5,481.5C 343.549,498.151 311.549,508.151 277.5,511.5C 262.833,511.5 248.167,511.5 233.5,511.5C 225.261,510.368 216.927,509.035 208.5,507.5C 203.072,500.126 201.072,491.792 202.5,482.5C 196.974,482.821 191.64,482.488 186.5,481.5 Z"/></g>
</svg>
