<?xml version="1.0" encoding="UTF-8"?>
<!DOCTYPE svg PUBLIC "-//W3C//DTD SVG 1.1//EN" "http://www.w3.org/Graphics/SVG/1.1/DTD/svg11.dtd">
<svg xmlns="http://www.w3.org/2000/svg" version="1.1" width="512px" height="512px" style="shape-rendering:geometricPrecision; text-rendering:geometricPrecision; image-rendering:optimizeQuality; fill-rule:evenodd; clip-rule:evenodd" xmlns:xlink="http://www.w3.org/1999/xlink">
<g><path style="opacity:0.975" fill="#030100" d="M 252.5,17.5 C 258.903,17.1383 264.403,19.1383 269,23.5C 301.844,69.8538 335.177,115.854 369,161.5C 405.744,133.545 442.577,105.712 479.5,78C 491.085,72.6404 499.919,75.4737 506,86.5C 506.667,90.8333 506.667,95.1667 506,99.5C 498.416,133.428 490.582,167.261 482.5,201C 493.582,206.773 500.082,215.94 502,228.5C 506.198,254.04 500.531,277.04 485,297.5C 477.923,306.289 468.756,310.622 457.5,310.5C 453.693,328.364 449.693,346.198 445.5,364C 451.454,368.632 455.954,374.465 459,381.5C 464.224,402.73 456.391,416.063 435.5,421.5C 435.5,427.5 435.5,433.5 435.5,439.5C 448.213,441.711 456.38,449.044 460,461.5C 462.58,478.344 456.247,490.344 441,497.5C 438.865,498.127 436.698,498.627 434.5,499C 374.833,499.167 315.167,499.333 255.5,499.5C 194.131,499.657 132.798,499.157 71.5,498C 54.6951,491.566 47.8617,479.4 51,461.5C 54.62,449.044 62.7867,441.711 75.5,439.5C 75.5,433.5 75.5,427.5 75.5,421.5C 62.7867,419.289 54.62,411.956 51,399.5C 49.9451,392.314 50.6118,385.314 53,378.5C 56.4907,373.015 60.6574,368.181 65.5,364C 61.1019,346.242 57.1019,328.409 53.5,310.5C 42.2439,310.622 33.0772,306.289 26,297.5C 9.63526,276.033 4.30193,252.033 10,225.5C 12.1971,214.246 18.3638,206.08 28.5,201C 20.4177,167.261 12.5844,133.428 5,99.5C 2.49017,82.6799 9.65683,74.8465 26.5,76C 28.2464,76.4709 29.913,77.1376 31.5,78C 68.423,105.712 105.256,133.545 142,161.5C 175.823,115.854 209.156,69.8538 242,23.5C 245.069,20.5545 248.569,18.5545 252.5,17.5 Z"/></g>
<g><path style="opacity:1" fill="#fabe07" d="M 350.5,167.5 C 344.978,171.828 339.811,171.495 335,166.5C 306.357,126.038 277.19,86.0377 247.5,46.5C 249.808,43.1847 252.141,39.8514 254.5,36.5C 255.167,35.1667 255.833,35.1667 256.5,36.5C 287.858,80.1849 319.192,123.852 350.5,167.5 Z"/></g>
<g><path style="opacity:1" fill="#fedb00" d="M 247.5,46.5 C 277.19,86.0377 306.357,126.038 335,166.5C 339.811,171.495 344.978,171.828 350.5,167.5C 352.636,169.812 354.636,172.312 356.5,175C 361.876,179.626 367.876,180.626 374.5,178C 405.885,155.646 436.885,132.812 467.5,109.5C 468.124,109.917 468.457,110.584 468.5,111.5C 449.492,194.862 430.492,278.195 411.5,361.5C 301.833,361.5 192.167,361.5 82.5,361.5C 62.3261,272.471 41.9928,183.471 21.5,94.5C 22.0016,93.479 22.6683,93.3123 23.5,94C 61.2918,123.134 99.6251,151.467 138.5,179C 144.838,180.52 150.338,179.02 155,174.5C 185.665,131.675 216.498,89.0087 247.5,46.5 Z"/></g>
<g><path style="opacity:1" fill="#f4bb07" d="M 82.5,361.5 C 192.167,361.5 301.833,361.5 411.5,361.5C 430.492,278.195 449.492,194.862 468.5,111.5C 468.457,110.584 468.124,109.917 467.5,109.5C 474.267,104.579 480.933,99.4126 487.5,94C 488.332,93.3123 488.998,93.479 489.5,94.5C 468.325,183.68 447.992,273.013 428.5,362.5C 312.999,362.833 197.665,362.5 82.5,361.5 Z"/></g>
<g><path style="opacity:1" fill="#030201" d="M 248.5,200.5 C 260.113,198.724 269.613,202.391 277,211.5C 290.971,235.284 293.304,260.284 284,286.5C 280.293,297.539 273.126,305.372 262.5,310C 250.881,312.275 241.381,308.775 234,299.5C 220.464,276.458 217.798,252.124 226,226.5C 229.809,214.532 237.309,205.865 248.5,200.5 Z"/></g>
<g><path style="opacity:1" fill="#030201" d="M 143.5,208.5 C 152.773,207.867 160.606,210.867 167,217.5C 177.782,233.652 181.115,251.318 177,270.5C 175.208,282.264 169.708,291.764 160.5,299C 148.572,305.228 138.405,303.062 130,292.5C 124.164,284.482 120.83,275.482 120,265.5C 117.302,248.972 120.302,233.639 129,219.5C 132.915,214.477 137.749,210.81 143.5,208.5 Z"/></g>
<g><path style="opacity:1" fill="#040201" d="M 356.5,208.5 C 368.451,207.726 377.618,212.392 384,222.5C 393.289,242.825 393.956,263.492 386,284.5C 379.741,298.377 369.241,303.877 354.5,301C 346.606,297.439 341.106,291.605 338,283.5C 331.466,266.412 330.799,249.078 336,231.5C 339.636,220.836 346.469,213.169 356.5,208.5 Z"/></g>
<g><path style="opacity:1" fill="#9a26ad" d="M 252.5,217.5 C 258.347,216.84 262.513,219.173 265,224.5C 272.085,237.652 274.419,251.652 272,266.5C 270.666,276.184 266.833,284.684 260.5,292C 255.676,294.446 251.509,293.613 248,289.5C 239.239,275.362 236.239,260.029 239,243.5C 240.407,233.032 244.907,224.366 252.5,217.5 Z"/></g>
<g><path style="opacity:1" fill="#9625a8" d="M 31.5,219.5 C 32.9311,219.881 33.7645,220.881 34,222.5C 39.4867,245.778 44.6534,269.112 49.5,292.5C 47.2166,292.392 45.2166,291.559 43.5,290C 34.1248,280.752 28.2914,269.585 26,256.5C 23.0684,243.426 24.9018,231.093 31.5,219.5 Z"/></g>
<g><path style="opacity:1" fill="#9625a8" d="M 477.5,219.5 C 478.496,219.414 479.329,219.748 480,220.5C 486.226,231.857 487.893,243.857 485,256.5C 482.709,269.585 476.875,280.752 467.5,290C 465.783,291.559 463.783,292.392 461.5,292.5C 466.673,268.14 472.006,243.807 477.5,219.5 Z"/></g>
<g><path style="opacity:1" fill="#9926ac" d="M 146.5,225.5 C 151.463,225.458 154.797,227.791 156.5,232.5C 162.555,246.602 163.055,260.935 158,275.5C 156.393,280.43 153.226,283.763 148.5,285.5C 146.272,284.781 144.439,283.448 143,281.5C 137.706,273.659 135.54,264.992 136.5,255.5C 135.318,243.892 138.651,233.892 146.5,225.5 Z"/></g>
<g><path style="opacity:1" fill="#9a26ac" d="M 360.5,225.5 C 365.609,226.43 369.109,229.43 371,234.5C 375.296,247.357 375.629,260.357 372,273.5C 366.765,288.577 360.431,289.243 353,275.5C 348.767,262.938 348.434,250.271 352,237.5C 353.952,232.74 356.786,228.74 360.5,225.5 Z"/></g>
<g><path style="opacity:1" fill="#fffefd" d="M 90.5,287.5 C 95.2797,286.641 98.7797,288.308 101,292.5C 103.89,304.351 106.723,316.184 109.5,328C 122.5,328.333 135.5,328.667 148.5,329C 153.535,332.013 154.702,336.18 152,341.5C 151.097,342.701 149.931,343.535 148.5,344C 131.075,344.971 113.742,344.638 96.5,343C 95.5399,341.581 94.7065,340.081 94,338.5C 91.0858,324.344 88.2525,310.178 85.5,296C 85.3082,292.035 86.9749,289.201 90.5,287.5 Z"/></g>
<g><path style="opacity:1" fill="#fe9701" d="M 422.5,379.5 C 427.83,387.821 427.83,396.154 422.5,404.5C 306.833,404.667 191.166,404.5 75.5,404C 67.3719,399.251 65.5386,392.751 70,384.5C 71.5429,382.622 73.3762,381.122 75.5,380C 191.166,379.5 306.833,379.333 422.5,379.5 Z"/></g>
<g><path style="opacity:1" fill="#f07900" d="M 422.5,379.5 C 428.105,378.908 433.439,379.741 438.5,382C 445.365,389.297 445.032,396.297 437.5,403C 432.599,404.325 427.599,404.825 422.5,404.5C 427.83,396.154 427.83,387.821 422.5,379.5 Z"/></g>
<g><path style="opacity:1" fill="#f34334" d="M 93.5,422.5 C 195.833,422.5 298.167,422.5 400.5,422.5C 400.5,427.833 400.5,433.167 400.5,438.5C 298.167,438.5 195.833,438.5 93.5,438.5C 93.5,433.167 93.5,427.833 93.5,422.5 Z"/></g>
<g><path style="opacity:1" fill="#a2221d" d="M 93.5,422.5 C 201.332,421.501 309.332,421.167 417.5,421.5C 417.5,427.5 417.5,433.5 417.5,439.5C 309.332,439.833 201.332,439.499 93.5,438.5C 195.833,438.5 298.167,438.5 400.5,438.5C 400.5,433.167 400.5,427.833 400.5,422.5C 298.167,422.5 195.833,422.5 93.5,422.5 Z"/></g>
<g><path style="opacity:1" fill="#fe9701" d="M 77.5,456.5 C 192.5,456.333 307.5,456.5 422.5,457C 427.708,465.168 427.708,473.335 422.5,481.5C 307.166,481.667 191.833,481.5 76.5,481C 67.934,476.635 65.7673,470.135 70,461.5C 71.8567,458.8 74.3567,457.134 77.5,456.5 Z"/></g>
<g><path style="opacity:1" fill="#c86900" d="M 77.5,456.5 C 195.333,455.334 313.333,455.167 431.5,456C 441.375,458.585 444.875,464.751 442,474.5C 440.833,477 439,478.833 436.5,480C 431.934,481.309 427.267,481.809 422.5,481.5C 427.708,473.335 427.708,465.168 422.5,457C 307.5,456.5 192.5,456.333 77.5,456.5 Z"/></g>
</svg>
